<svg width="22" height="22" viewBox="0 0 22 22" fill="none" xmlns="http://www.w3.org/2000/svg">
<path d="M14.2605 10.8824C14.2605 12.5757 12.8922 13.944 11.1989 13.944C9.50562 13.944 8.13731 12.5757 8.13731 10.8824C8.13731 9.18911 9.50562 7.8208 11.1989 7.8208C12.8922 7.8208 14.2605 9.18911 14.2605 10.8824Z" stroke="#04009A" stroke-width="0.749605" stroke-linecap="round" stroke-linejoin="round"/>
<path d="M11.1989 17.9552C14.2178 17.9552 17.0313 16.1764 18.9897 13.0977C19.7594 11.8919 19.7594 9.86508 18.9897 8.65926C17.0313 5.58056 14.2178 3.80176 11.1989 3.80176C8.18008 3.80176 5.36649 5.58056 3.4081 8.65926C2.63842 9.86508 2.63842 11.8919 3.4081 13.0977C5.36649 16.1764 8.18008 17.9552 11.1989 17.9552Z" stroke="#04009A" stroke-width="0.749605" stroke-linecap="round" stroke-linejoin="round"/>
</svg>
