<svg width="25" height="25" viewBox="0 0 25 25" fill="none" xmlns="http://www.w3.org/2000/svg">
<path d="M19.9611 22.0532C20.3589 22.0532 20.7405 21.8952 21.0218 21.6139C21.3031 21.3326 21.4611 20.951 21.4611 20.5532V17.0532C21.4611 16.6554 21.3031 16.2739 21.0218 15.9926C20.7405 15.7113 20.3589 15.5532 19.9611 15.5532C18.7911 15.5532 17.6411 15.3732 16.5411 15.0032C16.2781 14.9202 15.9974 14.9108 15.7295 14.976C15.4615 15.0413 15.2165 15.1786 15.0211 15.3732L13.5811 16.8132C11.0934 15.4556 9.0487 13.411 7.69112 10.9232L9.12112 9.49322C9.53112 9.10322 9.68112 8.52322 9.50112 7.96322C9.14112 6.87322 8.96112 5.72322 8.96112 4.55322C8.96112 4.1554 8.80309 3.77387 8.52178 3.49256C8.24048 3.21126 7.85895 3.05322 7.46112 3.05322H3.96112C3.5633 3.05322 3.18177 3.21126 2.90046 3.49256C2.61916 3.77387 2.46112 4.1554 2.46112 4.55322C2.46112 14.2032 10.3111 22.0532 19.9611 22.0532ZM3.96112 4.05322H7.46112C7.59373 4.05322 7.72091 4.1059 7.81467 4.19967C7.90844 4.29344 7.96112 4.42061 7.96112 4.55322C7.96112 5.83322 8.16112 7.08322 8.55112 8.27322C8.60112 8.41322 8.59112 8.61322 8.43112 8.77322L6.46112 10.7332C8.11112 13.9632 10.5311 16.3832 13.7711 18.0532L15.7211 16.0832C15.8611 15.9432 16.0511 15.9032 16.2311 15.9532C17.4311 16.3532 18.6811 16.5532 19.9611 16.5532C20.0937 16.5532 20.2209 16.6059 20.3147 16.6997C20.4084 16.7934 20.4611 16.9206 20.4611 17.0532V20.5532C20.4611 20.6858 20.4084 20.813 20.3147 20.9068C20.2209 21.0005 20.0937 21.0532 19.9611 21.0532C10.8611 21.0532 3.46112 13.6532 3.46112 4.55322C3.46112 4.42061 3.5138 4.29344 3.60757 4.19967C3.70134 4.1059 3.82851 4.05322 3.96112 4.05322Z" fill="#043B64"/>
</svg>
