<svg width="22" height="22" viewBox="0 0 22 22" fill="none" xmlns="http://www.w3.org/2000/svg">
<path d="M11.1772 10.1149C11.0917 10.1063 10.989 10.1063 10.895 10.1149C8.8596 10.0465 7.24329 8.37883 7.24329 6.32636C7.24329 4.23113 8.93657 2.5293 11.0403 2.5293C13.1356 2.5293 14.8374 4.23113 14.8374 6.32636C14.8289 8.37883 13.2125 10.0465 11.1772 10.1149Z" stroke="#04009A" stroke-width="0.749605" stroke-linecap="round" stroke-linejoin="round"/>
<path d="M6.90121 13.2704C4.83164 14.6558 4.83164 16.9136 6.90121 18.2904C9.25299 19.864 13.1099 19.864 15.4617 18.2904C17.5313 16.905 17.5313 14.6473 15.4617 13.2704C13.1185 11.7054 9.26154 11.7054 6.90121 13.2704Z" stroke="#04009A" stroke-width="0.749605" stroke-linecap="round" stroke-linejoin="round"/>
</svg>
