<svg width="21" height="21" viewBox="0 0 21 21" fill="none" xmlns="http://www.w3.org/2000/svg">
<path d="M17.3686 3.0749L17.3693 3.07558C19.2017 4.90798 20.2107 7.34708 20.2107 9.94416C20.2107 15.2937 15.8503 19.6542 10.5007 19.6542C8.87447 19.6542 7.27733 19.2427 5.85643 18.4685L5.7867 18.4305L5.7099 18.4507L0.794683 19.7427L2.10371 14.9367L2.12552 14.8567L2.08425 14.7847C1.24144 13.3147 0.790742 11.6489 0.790742 9.93416C0.790742 4.58462 5.1512 0.224163 10.5007 0.224164L10.5014 0.224162C11.7779 0.219933 13.0426 0.469813 14.2216 0.959242C15.4006 1.44867 16.4704 2.16786 17.3686 3.0749ZM6.19784 17.1957L6.19904 17.1964C7.4996 17.9644 8.98468 18.3742 10.5007 18.3742C15.1504 18.3742 18.9408 14.5954 18.9207 9.94411C18.9249 8.835 18.7089 7.73609 18.2852 6.71109C17.8615 5.68601 17.2384 4.75526 16.4522 3.9728C14.8647 2.3752 12.7437 1.49416 10.4907 1.49416C5.84028 1.49416 2.05074 5.28371 2.05074 9.93416L2.05074 9.93428C2.05169 11.5211 2.49888 13.0756 3.34125 14.4203L3.34124 14.4203L3.34268 14.4226L3.4943 14.6576L2.6878 17.6115L2.59657 17.9456L2.93158 17.8576L5.97009 17.059L6.19784 17.1957ZM7.90624 9.50188L7.90616 9.50193L7.90924 9.50706C8.06063 9.75937 8.5635 10.5919 9.32762 11.2734C10.1581 12.0155 10.8905 12.3296 11.2301 12.4753C11.2843 12.4985 11.3285 12.5175 11.3615 12.5332C11.4989 12.6042 11.641 12.652 11.785 12.6353C11.9383 12.6176 12.0531 12.5322 12.1431 12.4237C12.2847 12.2618 12.7571 11.6993 12.9349 11.4384C12.9976 11.3505 13.034 11.3448 13.0503 11.3429C13.0877 11.3388 13.1416 11.3504 13.2598 11.3912C13.4282 11.4612 14.1362 11.8061 14.5906 12.0275C14.7444 12.1025 14.8692 12.1633 14.9342 12.1945C14.9919 12.2222 15.0401 12.2443 15.082 12.2636C15.1402 12.2904 15.1864 12.3116 15.2293 12.3345C15.2875 12.3655 15.3089 12.3846 15.3182 12.3962C15.3191 12.4004 15.3248 12.4196 15.3288 12.4619C15.334 12.518 15.3345 12.5955 15.3264 12.6912C15.3104 12.8821 15.2618 13.1323 15.1627 13.4061L15.1627 13.4061L15.1617 13.409C15.0845 13.6328 14.8359 13.8794 14.5126 14.0872C14.1946 14.2916 13.8547 14.4265 13.6525 14.4562C13.2364 14.5142 12.7309 14.5405 12.182 14.3638L12.1821 14.3638L12.1792 14.3629C11.8234 14.2542 11.3716 14.1068 10.7914 13.8511L10.79 13.8505C8.47676 12.8525 6.91263 10.5703 6.66935 10.2154C6.6581 10.199 6.64968 10.1867 6.64414 10.1788L6.6442 10.1788L6.64074 10.1742L6.63883 10.1716C6.57769 10.0901 6.33619 9.76817 6.10905 9.32108C5.87803 8.86632 5.67074 8.2991 5.67074 7.73416C5.67074 6.68698 6.16968 6.13885 6.42187 5.86179C6.44287 5.83871 6.46216 5.81752 6.47931 5.79807C6.66514 5.59696 6.86759 5.55416 6.99074 5.55416H7.4643C7.50372 5.55662 7.53162 5.55689 7.55319 5.55709C7.59502 5.55749 7.61308 5.55766 7.64537 5.57318C7.67915 5.58941 7.75517 5.64328 7.8456 5.85983C8.04375 6.35514 8.5471 7.5841 8.61186 7.71361C8.65762 7.80513 8.67288 7.87597 8.63067 7.96709C8.62456 7.97932 8.61868 7.99113 8.61299 8.00255C8.543 8.14308 8.50202 8.22536 8.40889 8.334C8.36451 8.38578 8.32082 8.43863 8.27845 8.48988C8.1955 8.59023 8.11758 8.68448 8.04932 8.75274L8.04584 8.75622C7.98533 8.8167 7.89161 8.91037 7.84628 9.03652C7.79359 9.18314 7.8149 9.33878 7.90624 9.50188Z" fill="#043B64" stroke="white" stroke-width="0.4"/>
</svg>
